<svg width="100%" height="94" viewBox="0 0 1440 94" fill="none" xmlns="http://www.w3.org/2000/svg">
  <g clip-path="url(#clip0_55_559)">
    <rect width="100%" height="94" fill="#191E21"/>
    <rect width="100%" height="33" transform="translate(-11 -24)" fill="#E39707"/>
    <rect width="75" height="16" transform="translate(-11 39)" fill="#E39707"/>
    <rect width="75" height="16" transform="translate(75 39)" fill="#E39707"/>
    <rect width="75" height="16" transform="translate(162 39)" fill="#E39707"/>
    <rect width="75" height="16" transform="translate(248 39)" fill="#E39707"/>
    <rect width="75" height="16" transform="translate(334 39)" fill="#E39707"/>
    <rect width="75" height="16" transform="translate(420 39)" fill="#E39707"/>
    <rect width="75" height="16" transform="translate(507 39)" fill="#E39707"/>
    <rect width="75" height="16" transform="translate(593 39)" fill="#E39707"/>
    <rect width="75" height="16" transform="translate(679 39)" fill="#E39707"/>
    <rect width="75" height="16" transform="translate(766 39)" fill="#E39707"/>
    <rect width="75" height="16" transform="translate(852 39)" fill="#E39707"/>
    <rect width="75" height="16" transform="translate(938 39)" fill="#E39707"/>
    <rect width="75" height="16" transform="translate(1024 39)" fill="#E39707"/>
    <rect width="75" height="16" transform="translate(1111 39)" fill="#E39707"/>
    <rect width="75" height="16" transform="translate(1197 39)" fill="#E39707"/>
    <rect width="75" height="16" transform="translate(1284 39)" fill="#E39707"/>
    <rect width="75" height="16" transform="translate(1371 39)" fill="#E39707"/>
    <rect width="100%" height="33" transform="translate(0 86)" fill="#E39707"/>
  </g>
  <defs>
    <clipPath id="clip0_55_559">
      <rect width="100%" height="94" fill="white"/>
    </clipPath>
  </defs>
</svg>
