<svg width="256" height="242" viewBox="0 0 256 242" fill="none" xmlns="http://www.w3.org/2000/svg">
<rect x="0.5" y="0.5" width="255" height="241" fill="#191E21"/>
<rect x="0.5" y="0.5" width="255" height="241" stroke="#E39707"/>
<path d="M86.9208 207V189.545H93.4663C94.8072 189.545 95.9322 189.778 96.8413 190.244C97.756 190.71 98.4464 191.364 98.9123 192.205C99.3839 193.04 99.6197 194.014 99.6197 195.128C99.6197 196.247 99.381 197.219 98.9038 198.043C98.4322 198.861 97.7362 199.494 96.8157 199.943C95.8952 200.386 94.7646 200.608 93.4237 200.608H88.7617V197.983H92.9975C93.7816 197.983 94.4237 197.875 94.9237 197.659C95.4237 197.437 95.793 197.116 96.0316 196.696C96.2759 196.27 96.3981 195.747 96.3981 195.128C96.3981 194.509 96.2759 193.98 96.0316 193.543C95.7873 193.099 95.4151 192.764 94.9151 192.537C94.4151 192.304 93.7702 192.188 92.9805 192.188H90.0827V207H86.9208ZM95.9379 199.091L100.259 207H96.7305L92.4862 199.091H95.9379ZM108.002 207.256C106.689 207.256 105.556 206.983 104.601 206.438C103.652 205.886 102.922 205.108 102.411 204.102C101.9 203.091 101.644 201.901 101.644 200.531C101.644 199.185 101.9 198.003 102.411 196.986C102.928 195.963 103.65 195.168 104.576 194.599C105.502 194.026 106.59 193.739 107.84 193.739C108.647 193.739 109.408 193.869 110.124 194.131C110.846 194.386 111.482 194.784 112.033 195.324C112.59 195.864 113.027 196.551 113.346 197.386C113.664 198.216 113.823 199.205 113.823 200.352V201.298H103.093V199.219H110.865C110.86 198.628 110.732 198.102 110.482 197.642C110.232 197.176 109.882 196.81 109.434 196.543C108.99 196.276 108.473 196.142 107.882 196.142C107.252 196.142 106.698 196.295 106.221 196.602C105.743 196.903 105.371 197.301 105.104 197.795C104.843 198.284 104.709 198.821 104.703 199.406V201.222C104.703 201.983 104.843 202.636 105.121 203.182C105.4 203.722 105.789 204.136 106.289 204.426C106.789 204.71 107.374 204.852 108.044 204.852C108.493 204.852 108.9 204.79 109.263 204.665C109.627 204.534 109.942 204.344 110.209 204.094C110.476 203.844 110.678 203.534 110.814 203.165L113.695 203.489C113.513 204.25 113.167 204.915 112.655 205.483C112.15 206.045 111.502 206.483 110.712 206.795C109.922 207.102 109.019 207.256 108.002 207.256ZM119.518 199.33V207H116.433V193.909H119.382V196.134H119.535C119.836 195.401 120.316 194.818 120.975 194.386C121.64 193.955 122.461 193.739 123.439 193.739C124.342 193.739 125.129 193.932 125.799 194.318C126.475 194.705 126.998 195.264 127.368 195.997C127.743 196.73 127.927 197.619 127.922 198.665V207H124.836V199.142C124.836 198.267 124.609 197.582 124.154 197.088C123.706 196.594 123.083 196.347 122.288 196.347C121.748 196.347 121.268 196.466 120.848 196.705C120.433 196.937 120.106 197.276 119.868 197.719C119.635 198.162 119.518 198.699 119.518 199.33ZM137.595 193.909V196.295H130.069V193.909H137.595ZM131.927 190.773H135.012V203.062C135.012 203.477 135.075 203.795 135.2 204.017C135.331 204.233 135.501 204.381 135.711 204.46C135.922 204.54 136.154 204.58 136.41 204.58C136.603 204.58 136.779 204.565 136.939 204.537C137.103 204.509 137.228 204.483 137.314 204.46L137.833 206.872C137.669 206.929 137.433 206.991 137.126 207.06C136.825 207.128 136.456 207.168 136.018 207.179C135.245 207.202 134.549 207.085 133.93 206.83C133.311 206.568 132.819 206.165 132.456 205.619C132.098 205.074 131.922 204.392 131.927 203.574V190.773ZM143.942 207.264C143.113 207.264 142.365 207.116 141.701 206.821C141.042 206.52 140.519 206.077 140.132 205.491C139.752 204.906 139.561 204.185 139.561 203.327C139.561 202.588 139.698 201.977 139.971 201.494C140.243 201.011 140.615 200.625 141.087 200.335C141.559 200.045 142.09 199.827 142.681 199.679C143.277 199.526 143.894 199.415 144.53 199.347C145.297 199.267 145.919 199.196 146.397 199.134C146.874 199.065 147.221 198.963 147.436 198.827C147.658 198.685 147.769 198.466 147.769 198.17V198.119C147.769 197.477 147.578 196.98 147.198 196.628C146.817 196.276 146.269 196.099 145.553 196.099C144.797 196.099 144.198 196.264 143.755 196.594C143.317 196.923 143.022 197.312 142.868 197.761L139.988 197.352C140.215 196.557 140.59 195.892 141.113 195.358C141.635 194.818 142.275 194.415 143.03 194.148C143.786 193.875 144.621 193.739 145.536 193.739C146.167 193.739 146.794 193.812 147.419 193.96C148.044 194.108 148.615 194.352 149.132 194.693C149.65 195.028 150.064 195.486 150.377 196.065C150.695 196.645 150.854 197.369 150.854 198.239V207H147.888V205.202H147.786C147.598 205.565 147.334 205.906 146.993 206.224C146.658 206.537 146.235 206.79 145.723 206.983C145.218 207.17 144.624 207.264 143.942 207.264ZM144.743 204.997C145.363 204.997 145.9 204.875 146.354 204.631C146.809 204.381 147.158 204.051 147.402 203.642C147.652 203.233 147.777 202.787 147.777 202.304V200.761C147.681 200.841 147.516 200.915 147.283 200.983C147.056 201.051 146.8 201.111 146.516 201.162C146.232 201.213 145.951 201.259 145.672 201.298C145.394 201.338 145.152 201.372 144.948 201.401C144.488 201.463 144.076 201.565 143.712 201.707C143.348 201.849 143.061 202.048 142.851 202.304C142.641 202.554 142.536 202.878 142.536 203.276C142.536 203.844 142.743 204.273 143.158 204.562C143.573 204.852 144.101 204.997 144.743 204.997ZM157.042 189.545V207H153.956V189.545H157.042ZM170.561 197.369L167.748 197.676C167.669 197.392 167.529 197.125 167.331 196.875C167.137 196.625 166.876 196.423 166.547 196.27C166.217 196.116 165.814 196.04 165.336 196.04C164.694 196.04 164.154 196.179 163.717 196.457C163.285 196.736 163.072 197.097 163.078 197.54C163.072 197.92 163.211 198.23 163.495 198.469C163.785 198.707 164.262 198.903 164.927 199.057L167.16 199.534C168.399 199.801 169.319 200.224 169.922 200.804C170.529 201.384 170.836 202.142 170.842 203.08C170.836 203.903 170.595 204.631 170.118 205.261C169.646 205.886 168.99 206.375 168.149 206.727C167.308 207.08 166.342 207.256 165.251 207.256C163.649 207.256 162.359 206.92 161.382 206.25C160.404 205.574 159.822 204.634 159.635 203.429L162.643 203.139C162.779 203.73 163.069 204.176 163.512 204.477C163.956 204.778 164.532 204.929 165.243 204.929C165.975 204.929 166.564 204.778 167.007 204.477C167.456 204.176 167.68 203.804 167.68 203.361C167.68 202.986 167.535 202.676 167.245 202.432C166.961 202.187 166.518 202 165.916 201.869L163.683 201.401C162.427 201.139 161.498 200.699 160.896 200.08C160.294 199.455 159.995 198.665 160.001 197.71C159.995 196.903 160.214 196.205 160.657 195.614C161.106 195.017 161.728 194.557 162.524 194.233C163.325 193.903 164.248 193.739 165.294 193.739C166.828 193.739 168.035 194.065 168.916 194.719C169.802 195.372 170.35 196.256 170.561 197.369Z" fill="#E39707"/>
<rect x="65.5" y="26.5" width="126" height="126" rx="63" stroke="#E39707" stroke-width="3"/>
<g clip-path="url(#clip0_55_549)">
<path d="M115.5 92.125C115.5 92.9538 115.171 93.7487 114.585 94.3347C113.999 94.9208 113.204 95.25 112.375 95.25C111.546 95.25 110.751 94.9208 110.165 94.3347C109.579 93.7487 109.25 92.9538 109.25 92.125C109.25 91.2962 109.579 90.5013 110.165 89.9153C110.751 89.3292 111.546 89 112.375 89C113.204 89 113.999 89.3292 114.585 89.9153C115.171 90.5013 115.5 91.2962 115.5 92.125ZM146.75 92.125C146.75 92.9538 146.421 93.7487 145.835 94.3347C145.249 94.9208 144.454 95.25 143.625 95.25C142.796 95.25 142.001 94.9208 141.415 94.3347C140.829 93.7487 140.5 92.9538 140.5 92.125C140.5 91.2962 140.829 90.5013 141.415 89.9153C142.001 89.3292 142.796 89 143.625 89C144.454 89 145.249 89.3292 145.835 89.9153C146.421 90.5013 146.75 91.2962 146.75 92.125ZM121.75 89C120.921 89 120.126 89.3292 119.54 89.9153C118.954 90.5013 118.625 91.2962 118.625 92.125C118.625 92.9538 118.954 93.7487 119.54 94.3347C120.126 94.9208 120.921 95.25 121.75 95.25H134.25C135.079 95.25 135.874 94.9208 136.46 94.3347C137.046 93.7487 137.375 92.9538 137.375 92.125C137.375 91.2962 137.046 90.5013 136.46 89.9153C135.874 89.3292 135.079 89 134.25 89H121.75ZM118.194 77.3625L115.206 83.3438C115.084 83.5958 115.031 83.8756 115.051 84.1549C115.071 84.4343 115.165 84.7033 115.322 84.9349C115.48 85.1665 115.696 85.3526 115.948 85.4743C116.2 85.596 116.48 85.649 116.759 85.6281C119.603 85.4 124.103 85.0969 128 85.0969C131.897 85.0969 136.4 85.4 139.241 85.6281C139.52 85.649 139.8 85.596 140.052 85.4743C140.304 85.3526 140.52 85.1665 140.678 84.9349C140.835 84.7033 140.929 84.4343 140.949 84.1549C140.969 83.8756 140.916 83.5958 140.794 83.3438L137.806 77.3656C137.677 77.1058 137.478 76.8872 137.231 76.7343C136.984 76.5814 136.7 76.5003 136.409 76.5H119.591C119.301 76.5 119.016 76.5807 118.77 76.733C118.523 76.8853 118.324 77.1033 118.194 77.3625Z" fill="#E39707"/>
<path d="M110.875 74.9844C111.478 73.5781 112.48 72.3798 113.758 71.5382C115.036 70.6966 116.532 70.2486 118.062 70.25H137.944C141.069 70.25 143.894 72.1125 145.125 74.9844L147.6 80.7594C147.834 81.3063 148.256 81.7563 148.787 82.0219C150.35 82.8031 151.459 84.2563 151.803 85.9656L152.85 91.2125C152.954 91.7167 153.005 92.2271 153.003 92.7438V94.0344C153.003 96.5781 151.784 98.8563 149.878 100.275V106.188C149.878 106.602 149.713 106.999 149.42 107.292C149.127 107.585 148.73 107.75 148.315 107.75H142.065C141.651 107.75 141.254 107.585 140.961 107.292C140.668 106.999 140.503 106.602 140.503 106.188V102.006C136.465 102.156 131.925 102.281 128.003 102.281C124.081 102.281 119.54 102.156 115.503 102.006V106.188C115.503 106.602 115.338 106.999 115.045 107.292C114.752 107.585 114.355 107.75 113.94 107.75H107.69C107.276 107.75 106.879 107.585 106.586 107.292C106.293 106.999 106.128 106.602 106.128 106.188V100.275C104.222 98.8563 103.003 96.5781 103.003 94.0344V92.7438C103.003 92.2295 103.055 91.7166 103.156 91.2125L104.203 85.9625C104.547 84.2563 105.656 82.8 107.215 82.0219C107.75 81.7567 108.173 81.3089 108.406 80.7594L110.881 74.9844H110.875ZM118.062 73.375C117.144 73.3751 116.247 73.6446 115.481 74.1501C114.715 74.6556 114.114 75.3749 113.753 76.2188L111.278 81.9906C110.753 83.2189 109.808 84.2203 108.612 84.8156C108.268 84.9863 107.967 85.2342 107.734 85.5398C107.501 85.8455 107.342 86.2008 107.269 86.5781L106.219 91.825C106.157 92.1274 106.126 92.4352 106.125 92.7438V94.0344C106.125 96.5219 108.062 98.5594 110.525 98.6719C115.384 98.8906 122.356 99.1563 128 99.1563C133.644 99.1563 140.615 98.8938 145.475 98.6719C146.664 98.614 147.785 98.0995 148.605 97.2357C149.425 96.3718 149.879 95.2252 149.875 94.0344V92.7438C149.875 92.4354 149.844 92.1292 149.781 91.825L148.734 86.575C148.66 86.1983 148.501 85.8436 148.268 85.5385C148.035 85.2334 147.734 84.986 147.39 84.8156C146.195 84.2203 145.25 83.2189 144.725 81.9906L142.25 76.2156C141.888 75.3719 141.287 74.6529 140.52 74.1479C139.753 73.6429 138.855 73.3742 137.937 73.375H118.062Z" fill="#E39707"/>
</g>
<defs>
<clipPath id="clip0_55_549">
<rect width="50" height="50" fill="white" transform="translate(103 64)"/>
</clipPath>
</defs>
</svg>
