<svg width="256" height="242" viewBox="0 0 256 242" fill="none" xmlns="http://www.w3.org/2000/svg">
<rect x="0.5" y="0.5" width="255" height="241" fill="#191E21"/>
<rect x="0.5" y="0.5" width="255" height="241" stroke="#E39707"/>
<path d="M38.9631 207H35.5881L41.733 189.545H45.6364L51.7898 207H48.4148L43.7528 193.125H43.6165L38.9631 207ZM39.0739 200.156H48.2784V202.696H39.0739V200.156ZM54.0462 207V193.909H57.1314V207H54.0462ZM55.5973 192.051C55.1087 192.051 54.6882 191.889 54.3359 191.565C53.9837 191.236 53.8075 190.841 53.8075 190.381C53.8075 189.915 53.9837 189.52 54.3359 189.196C54.6882 188.866 55.1087 188.702 55.5973 188.702C56.0916 188.702 56.5121 188.866 56.8587 189.196C57.2109 189.52 57.3871 189.915 57.3871 190.381C57.3871 190.841 57.2109 191.236 56.8587 191.565C56.5121 191.889 56.0916 192.051 55.5973 192.051ZM60.304 207V193.909H63.2955V196.091H63.4318C63.6705 195.335 64.0795 194.753 64.6591 194.344C65.2443 193.929 65.9119 193.722 66.6619 193.722C66.8324 193.722 67.0227 193.73 67.233 193.747C67.4489 193.759 67.6278 193.778 67.7699 193.807V196.645C67.6392 196.599 67.4318 196.56 67.1477 196.526C66.8693 196.486 66.5994 196.466 66.3381 196.466C65.7756 196.466 65.2699 196.588 64.821 196.832C64.3778 197.071 64.0284 197.403 63.7727 197.83C63.517 198.256 63.3892 198.747 63.3892 199.304V207H60.304ZM69.8196 211.909V193.909H72.8537V196.074H73.0327C73.1918 195.756 73.4162 195.418 73.706 195.06C73.9957 194.696 74.3878 194.386 74.8821 194.131C75.3764 193.869 76.0071 193.739 76.7741 193.739C77.7855 193.739 78.6974 193.997 79.5099 194.514C80.3281 195.026 80.9759 195.784 81.4531 196.79C81.9361 197.79 82.1776 199.017 82.1776 200.472C82.1776 201.909 81.9418 203.131 81.4702 204.136C80.9986 205.142 80.3565 205.909 79.544 206.438C78.7315 206.966 77.8111 207.23 76.7827 207.23C76.0327 207.23 75.4105 207.105 74.9162 206.855C74.4219 206.605 74.0241 206.304 73.723 205.952C73.4276 205.594 73.1974 205.256 73.0327 204.938H72.9048V211.909H69.8196ZM72.8452 200.455C72.8452 201.301 72.9645 202.043 73.2031 202.679C73.4474 203.315 73.7969 203.812 74.2514 204.17C74.7116 204.523 75.2685 204.699 75.9219 204.699C76.6037 204.699 77.1747 204.517 77.6349 204.153C78.0952 203.784 78.4418 203.281 78.6747 202.645C78.9134 202.003 79.0327 201.273 79.0327 200.455C79.0327 199.642 78.9162 198.92 78.6832 198.29C78.4503 197.659 78.1037 197.165 77.6435 196.807C77.1832 196.449 76.6094 196.27 75.9219 196.27C75.2628 196.27 74.7031 196.443 74.2429 196.79C73.7827 197.136 73.4332 197.622 73.1946 198.247C72.9616 198.872 72.8452 199.608 72.8452 200.455ZM90.5298 207.256C89.2514 207.256 88.1435 206.974 87.206 206.412C86.2685 205.849 85.5412 205.062 85.0241 204.051C84.5128 203.04 84.2571 201.858 84.2571 200.506C84.2571 199.153 84.5128 197.969 85.0241 196.952C85.5412 195.935 86.2685 195.145 87.206 194.582C88.1435 194.02 89.2514 193.739 90.5298 193.739C91.8082 193.739 92.9162 194.02 93.8537 194.582C94.7912 195.145 95.5156 195.935 96.027 196.952C96.544 197.969 96.8026 199.153 96.8026 200.506C96.8026 201.858 96.544 203.04 96.027 204.051C95.5156 205.062 94.7912 205.849 93.8537 206.412C92.9162 206.974 91.8082 207.256 90.5298 207.256ZM90.5469 204.784C91.2401 204.784 91.8196 204.594 92.2855 204.213C92.7514 203.827 93.098 203.31 93.3253 202.662C93.5582 202.014 93.6747 201.293 93.6747 200.497C93.6747 199.696 93.5582 198.972 93.3253 198.324C93.098 197.67 92.7514 197.151 92.2855 196.764C91.8196 196.378 91.2401 196.185 90.5469 196.185C89.8366 196.185 89.2457 196.378 88.7741 196.764C88.3082 197.151 87.9588 197.67 87.7259 198.324C87.4986 198.972 87.3849 199.696 87.3849 200.497C87.3849 201.293 87.4986 202.014 87.7259 202.662C87.9588 203.31 88.3082 203.827 88.7741 204.213C89.2457 204.594 89.8366 204.784 90.5469 204.784ZM99.4212 207V193.909H102.413V196.091H102.549C102.788 195.335 103.197 194.753 103.776 194.344C104.362 193.929 105.029 193.722 105.779 193.722C105.95 193.722 106.14 193.73 106.35 193.747C106.566 193.759 106.745 193.778 106.887 193.807V196.645C106.756 196.599 106.549 196.56 106.265 196.526C105.987 196.486 105.717 196.466 105.455 196.466C104.893 196.466 104.387 196.588 103.938 196.832C103.495 197.071 103.146 197.403 102.89 197.83C102.634 198.256 102.506 198.747 102.506 199.304V207H99.4212ZM116.177 193.909V196.295H108.651V193.909H116.177ZM110.509 190.773H113.594V203.062C113.594 203.477 113.657 203.795 113.782 204.017C113.913 204.233 114.083 204.381 114.293 204.46C114.504 204.54 114.737 204.58 114.992 204.58C115.185 204.58 115.362 204.565 115.521 204.537C115.685 204.509 115.81 204.483 115.896 204.46L116.415 206.872C116.251 206.929 116.015 206.991 115.708 207.06C115.407 207.128 115.038 207.168 114.6 207.179C113.827 207.202 113.131 207.085 112.512 206.83C111.893 206.568 111.401 206.165 111.038 205.619C110.68 205.074 110.504 204.392 110.509 203.574V190.773ZM124.08 192.196V189.545H138.006V192.196H132.611V207H129.474V192.196H124.08ZM139.195 207V193.909H142.186V196.091H142.322C142.561 195.335 142.97 194.753 143.55 194.344C144.135 193.929 144.803 193.722 145.553 193.722C145.723 193.722 145.913 193.73 146.124 193.747C146.339 193.759 146.518 193.778 146.661 193.807V196.645C146.53 196.599 146.322 196.56 146.038 196.526C145.76 196.486 145.49 196.466 145.229 196.466C144.666 196.466 144.161 196.588 143.712 196.832C143.268 197.071 142.919 197.403 142.663 197.83C142.408 198.256 142.28 198.747 142.28 199.304V207H139.195ZM152.243 207.264C151.413 207.264 150.666 207.116 150.001 206.821C149.342 206.52 148.82 206.077 148.433 205.491C148.053 204.906 147.862 204.185 147.862 203.327C147.862 202.588 147.999 201.977 148.271 201.494C148.544 201.011 148.916 200.625 149.388 200.335C149.859 200.045 150.391 199.827 150.982 199.679C151.578 199.526 152.195 199.415 152.831 199.347C153.598 199.267 154.22 199.196 154.697 199.134C155.175 199.065 155.521 198.963 155.737 198.827C155.959 198.685 156.07 198.466 156.07 198.17V198.119C156.07 197.477 155.879 196.98 155.499 196.628C155.118 196.276 154.57 196.099 153.854 196.099C153.098 196.099 152.499 196.264 152.055 196.594C151.618 196.923 151.322 197.312 151.169 197.761L148.288 197.352C148.516 196.557 148.891 195.892 149.413 195.358C149.936 194.818 150.575 194.415 151.331 194.148C152.087 193.875 152.922 193.739 153.837 193.739C154.467 193.739 155.095 193.812 155.72 193.96C156.345 194.108 156.916 194.352 157.433 194.693C157.95 195.028 158.365 195.486 158.678 196.065C158.996 196.645 159.155 197.369 159.155 198.239V207H156.189V205.202H156.087C155.899 205.565 155.635 205.906 155.294 206.224C154.959 206.537 154.536 206.79 154.024 206.983C153.518 207.17 152.925 207.264 152.243 207.264ZM153.044 204.997C153.663 204.997 154.2 204.875 154.655 204.631C155.109 204.381 155.459 204.051 155.703 203.642C155.953 203.233 156.078 202.787 156.078 202.304V200.761C155.982 200.841 155.817 200.915 155.584 200.983C155.357 201.051 155.101 201.111 154.817 201.162C154.533 201.213 154.251 201.259 153.973 201.298C153.695 201.338 153.453 201.372 153.249 201.401C152.788 201.463 152.376 201.565 152.013 201.707C151.649 201.849 151.362 202.048 151.152 202.304C150.942 202.554 150.837 202.878 150.837 203.276C150.837 203.844 151.044 204.273 151.459 204.562C151.874 204.852 152.402 204.997 153.044 204.997ZM165.342 199.33V207H162.257V193.909H165.206V196.134H165.359C165.661 195.401 166.141 194.818 166.8 194.386C167.464 193.955 168.286 193.739 169.263 193.739C170.166 193.739 170.953 193.932 171.624 194.318C172.3 194.705 172.822 195.264 173.192 195.997C173.567 196.73 173.751 197.619 173.746 198.665V207H170.661V199.142C170.661 198.267 170.433 197.582 169.979 197.088C169.53 196.594 168.908 196.347 168.112 196.347C167.572 196.347 167.092 196.466 166.672 196.705C166.257 196.937 165.93 197.276 165.692 197.719C165.459 198.162 165.342 198.699 165.342 199.33ZM187.229 197.369L184.416 197.676C184.337 197.392 184.197 197.125 183.999 196.875C183.805 196.625 183.544 196.423 183.214 196.27C182.885 196.116 182.482 196.04 182.004 196.04C181.362 196.04 180.822 196.179 180.385 196.457C179.953 196.736 179.74 197.097 179.746 197.54C179.74 197.92 179.879 198.23 180.163 198.469C180.453 198.707 180.93 198.903 181.595 199.057L183.828 199.534C185.067 199.801 185.987 200.224 186.589 200.804C187.197 201.384 187.504 202.142 187.51 203.08C187.504 203.903 187.263 204.631 186.786 205.261C186.314 205.886 185.658 206.375 184.817 206.727C183.976 207.08 183.01 207.256 181.919 207.256C180.317 207.256 179.027 206.92 178.05 206.25C177.072 205.574 176.49 204.634 176.303 203.429L179.311 203.139C179.447 203.73 179.737 204.176 180.18 204.477C180.624 204.778 181.2 204.929 181.911 204.929C182.643 204.929 183.232 204.778 183.675 204.477C184.124 204.176 184.348 203.804 184.348 203.361C184.348 202.986 184.203 202.676 183.913 202.432C183.629 202.187 183.186 202 182.584 201.869L180.351 201.401C179.095 201.139 178.166 200.699 177.564 200.08C176.962 199.455 176.663 198.665 176.669 197.71C176.663 196.903 176.882 196.205 177.325 195.614C177.774 195.017 178.396 194.557 179.192 194.233C179.993 193.903 180.916 193.739 181.962 193.739C183.496 193.739 184.703 194.065 185.584 194.719C186.47 195.372 187.018 196.256 187.229 197.369ZM196.685 193.909V196.295H188.946V193.909H196.685ZM190.881 207V192.673C190.881 191.793 191.063 191.06 191.426 190.474C191.795 189.889 192.29 189.452 192.909 189.162C193.528 188.872 194.216 188.727 194.972 188.727C195.506 188.727 195.98 188.77 196.395 188.855C196.81 188.94 197.116 189.017 197.315 189.085L196.702 191.472C196.571 191.432 196.406 191.392 196.207 191.352C196.009 191.307 195.787 191.284 195.543 191.284C194.969 191.284 194.563 191.423 194.324 191.702C194.091 191.974 193.974 192.366 193.974 192.878V207H190.881ZM204.404 207.256C203.092 207.256 201.958 206.983 201.004 206.438C200.055 205.886 199.325 205.108 198.813 204.102C198.302 203.091 198.046 201.901 198.046 200.531C198.046 199.185 198.302 198.003 198.813 196.986C199.33 195.963 200.052 195.168 200.978 194.599C201.904 194.026 202.992 193.739 204.242 193.739C205.049 193.739 205.81 193.869 206.526 194.131C207.248 194.386 207.884 194.784 208.435 195.324C208.992 195.864 209.43 196.551 209.748 197.386C210.066 198.216 210.225 199.205 210.225 200.352V201.298H199.495V199.219H207.268C207.262 198.628 207.134 198.102 206.884 197.642C206.634 197.176 206.285 196.81 205.836 196.543C205.393 196.276 204.876 196.142 204.285 196.142C203.654 196.142 203.1 196.295 202.623 196.602C202.146 196.903 201.773 197.301 201.506 197.795C201.245 198.284 201.112 198.821 201.106 199.406V201.222C201.106 201.983 201.245 202.636 201.523 203.182C201.802 203.722 202.191 204.136 202.691 204.426C203.191 204.71 203.776 204.852 204.447 204.852C204.896 204.852 205.302 204.79 205.665 204.665C206.029 204.534 206.344 204.344 206.612 204.094C206.879 203.844 207.08 203.534 207.217 203.165L210.097 203.489C209.915 204.25 209.569 204.915 209.058 205.483C208.552 206.045 207.904 206.483 207.114 206.795C206.325 207.102 205.421 207.256 204.404 207.256ZM212.835 207V193.909H215.827V196.091H215.963C216.202 195.335 216.611 194.753 217.19 194.344C217.776 193.929 218.443 193.722 219.193 193.722C219.364 193.722 219.554 193.73 219.764 193.747C219.98 193.759 220.159 193.778 220.301 193.807V196.645C220.17 196.599 219.963 196.56 219.679 196.526C219.401 196.486 219.131 196.466 218.869 196.466C218.307 196.466 217.801 196.588 217.352 196.832C216.909 197.071 216.56 197.403 216.304 197.83C216.048 198.256 215.92 198.747 215.92 199.304V207H212.835Z" fill="#E39707"/>
<rect x="64.5" y="31.5" width="126" height="126" rx="63" stroke="#E39707" stroke-width="3"/>
<g clip-path="url(#clip0_55_538)">
<path d="M121.105 68.3162C122.155 66.2163 124.049 64 127 64C129.951 64 131.845 66.22 132.895 68.3162C133.979 70.4875 134.5 73.1163 134.5 75.25V89.0912L153.888 98.785C154.823 99.2518 155.609 99.97 156.159 100.859C156.709 101.748 157 102.772 157 103.818V109C157 109.272 156.94 109.541 156.826 109.788C156.711 110.035 156.545 110.254 156.337 110.43C156.129 110.606 155.886 110.734 155.623 110.807C155.361 110.879 155.086 110.893 154.818 110.849L134.166 107.406L132.76 115.855L137.702 120.798C137.965 121.06 138.145 121.394 138.217 121.758C138.29 122.122 138.253 122.5 138.11 122.843C137.968 123.186 137.727 123.479 137.418 123.685C137.109 123.891 136.746 124.001 136.375 124H117.625C117.254 124.001 116.891 123.891 116.582 123.685C116.273 123.479 116.032 123.186 115.89 122.843C115.747 122.5 115.71 122.122 115.783 121.758C115.855 121.394 116.035 121.06 116.298 120.798L121.244 115.855L119.834 107.406L99.1825 110.849C98.914 110.893 98.639 110.879 98.3766 110.807C98.1143 110.734 97.8708 110.606 97.6631 110.43C97.4554 110.254 97.2885 110.035 97.174 109.788C97.0595 109.541 97.0001 109.272 97 109V103.818C97 102.772 97.2913 101.748 97.841 100.859C98.3908 99.97 99.1774 99.2518 100.112 98.785L119.5 89.0912V75.25C119.5 73.12 120.025 70.4838 121.105 68.3162ZM124.458 69.9963C123.666 71.575 123.25 73.6337 123.25 75.25V90.25C123.25 90.5979 123.153 90.939 122.97 91.235C122.788 91.531 122.526 91.7704 122.215 91.9263L101.785 102.141C101.474 102.297 101.212 102.536 101.03 102.832C100.847 103.129 100.75 103.47 100.75 103.818V106.787L121.068 103.401C121.557 103.32 122.059 103.436 122.463 103.724C122.868 104.012 123.141 104.449 123.224 104.939L125.099 116.189C125.148 116.484 125.127 116.787 125.035 117.072C124.944 117.357 124.786 117.616 124.574 117.827L122.155 120.25H131.852L129.426 117.827C129.215 117.616 129.057 117.358 128.966 117.074C128.874 116.789 128.852 116.487 128.901 116.193L130.776 104.943C130.817 104.699 130.905 104.467 131.035 104.258C131.166 104.049 131.336 103.867 131.537 103.724C131.737 103.581 131.964 103.479 132.204 103.423C132.444 103.368 132.693 103.36 132.936 103.401L153.25 106.787V103.818C153.25 103.47 153.153 103.129 152.97 102.832C152.788 102.536 152.526 102.297 152.215 102.141L131.785 91.9263C131.474 91.7704 131.212 91.531 131.03 91.235C130.847 90.939 130.75 90.5979 130.75 90.25V75.25C130.75 73.63 130.338 71.5787 129.543 69.9963C128.718 68.3463 127.799 67.75 127 67.75C126.201 67.75 125.282 68.3425 124.458 69.9963Z" fill="#E39707"/>
</g>
<defs>
<clipPath id="clip0_55_538">
<rect width="60" height="60" fill="white" transform="translate(97 64)"/>
</clipPath>
</defs>
</svg>
