<svg width="256" height="242" viewBox="0 0 256 242" fill="none" xmlns="http://www.w3.org/2000/svg">
<rect x="0.5" y="0.5" width="255" height="241" fill="#191E21"/>
<rect x="0.5" y="0.5" width="255" height="241" stroke="#E39707"/>
<path d="M41.9911 207V189.545H48.6729C49.9343 189.545 50.9826 189.744 51.8178 190.142C52.6587 190.534 53.2866 191.071 53.7014 191.753C54.1218 192.435 54.332 193.207 54.332 194.071C54.332 194.781 54.1957 195.389 53.9229 195.895C53.6502 196.395 53.2837 196.801 52.8235 197.114C52.3633 197.426 51.8491 197.651 51.2809 197.787V197.957C51.9002 197.991 52.494 198.182 53.0621 198.528C53.636 198.869 54.1048 199.352 54.4684 199.977C54.832 200.602 55.0139 201.358 55.0139 202.244C55.0139 203.148 54.7951 203.96 54.3576 204.682C53.9201 205.398 53.261 205.963 52.3803 206.378C51.4996 206.793 50.3917 207 49.0565 207H41.9911ZM45.1531 204.358H48.5536C49.7013 204.358 50.5281 204.139 51.0337 203.702C51.5451 203.259 51.8008 202.69 51.8008 201.997C51.8008 201.48 51.6729 201.014 51.4173 200.599C51.1616 200.179 50.7979 199.849 50.3263 199.611C49.8548 199.366 49.2923 199.244 48.6388 199.244H45.1531V204.358ZM45.1531 196.969H48.2809C48.8263 196.969 49.3178 196.869 49.7553 196.67C50.1928 196.466 50.5366 196.179 50.7866 195.81C51.0423 195.435 51.1701 194.991 51.1701 194.48C51.1701 193.804 50.9315 193.247 50.4542 192.81C49.9826 192.372 49.2809 192.153 48.3491 192.153H45.1531V196.969ZM63.3384 207.256C62.06 207.256 60.9521 206.974 60.0146 206.412C59.0771 205.849 58.3498 205.062 57.8327 204.051C57.3214 203.04 57.0657 201.858 57.0657 200.506C57.0657 199.153 57.3214 197.969 57.8327 196.952C58.3498 195.935 59.0771 195.145 60.0146 194.582C60.9521 194.02 62.06 193.739 63.3384 193.739C64.6168 193.739 65.7248 194.02 66.6623 194.582C67.5998 195.145 68.3242 195.935 68.8356 196.952C69.3526 197.969 69.6112 199.153 69.6112 200.506C69.6112 201.858 69.3526 203.04 68.8356 204.051C68.3242 205.062 67.5998 205.849 66.6623 206.412C65.7248 206.974 64.6168 207.256 63.3384 207.256ZM63.3555 204.784C64.0487 204.784 64.6282 204.594 65.0941 204.213C65.56 203.827 65.9066 203.31 66.1339 202.662C66.3668 202.014 66.4833 201.293 66.4833 200.497C66.4833 199.696 66.3668 198.972 66.1339 198.324C65.9066 197.67 65.56 197.151 65.0941 196.764C64.6282 196.378 64.0487 196.185 63.3555 196.185C62.6452 196.185 62.0543 196.378 61.5827 196.764C61.1168 197.151 60.7674 197.67 60.5344 198.324C60.3072 198.972 60.1935 199.696 60.1935 200.497C60.1935 201.293 60.3072 202.014 60.5344 202.662C60.7674 203.31 61.1168 203.827 61.5827 204.213C62.0543 204.594 62.6452 204.784 63.3555 204.784ZM77.94 207.256C76.6616 207.256 75.5536 206.974 74.6161 206.412C73.6786 205.849 72.9513 205.062 72.4343 204.051C71.9229 203.04 71.6673 201.858 71.6673 200.506C71.6673 199.153 71.9229 197.969 72.4343 196.952C72.9513 195.935 73.6786 195.145 74.6161 194.582C75.5536 194.02 76.6616 193.739 77.94 193.739C79.2184 193.739 80.3263 194.02 81.2638 194.582C82.2013 195.145 82.9258 195.935 83.4371 196.952C83.9542 197.969 84.2127 199.153 84.2127 200.506C84.2127 201.858 83.9542 203.04 83.4371 204.051C82.9258 205.062 82.2013 205.849 81.2638 206.412C80.3263 206.974 79.2184 207.256 77.94 207.256ZM77.957 204.784C78.6502 204.784 79.2298 204.594 79.6957 204.213C80.1616 203.827 80.5082 203.31 80.7354 202.662C80.9684 202.014 81.0849 201.293 81.0849 200.497C81.0849 199.696 80.9684 198.972 80.7354 198.324C80.5082 197.67 80.1616 197.151 79.6957 196.764C79.2298 196.378 78.6502 196.185 77.957 196.185C77.2468 196.185 76.6559 196.378 76.1843 196.764C75.7184 197.151 75.369 197.67 75.136 198.324C74.9087 198.972 74.7951 199.696 74.7951 200.497C74.7951 201.293 74.9087 202.014 75.136 202.662C75.369 203.31 75.7184 203.827 76.1843 204.213C76.6559 204.594 77.2468 204.784 77.957 204.784ZM89.6438 202.892L89.6353 199.168H90.1296L94.8342 193.909H98.4393L92.6523 200.352H92.0131L89.6438 202.892ZM86.8313 207V189.545H89.9165V207H86.8313ZM95.0472 207L90.7859 201.043L92.8654 198.869L98.7376 207H95.0472ZM100.495 207V193.909H103.581V207H100.495ZM102.047 192.051C101.558 192.051 101.137 191.889 100.785 191.565C100.433 191.236 100.257 190.841 100.257 190.381C100.257 189.915 100.433 189.52 100.785 189.196C101.137 188.866 101.558 188.702 102.047 188.702C102.541 188.702 102.961 188.866 103.308 189.196C103.66 189.52 103.836 189.915 103.836 190.381C103.836 190.841 103.66 191.236 103.308 191.565C102.961 191.889 102.541 192.051 102.047 192.051ZM109.838 199.33V207H106.753V193.909H109.702V196.134H109.855C110.157 195.401 110.637 194.818 111.296 194.386C111.961 193.955 112.782 193.739 113.759 193.739C114.662 193.739 115.449 193.932 116.12 194.318C116.796 194.705 117.319 195.264 117.688 195.997C118.063 196.73 118.248 197.619 118.242 198.665V207H115.157V199.142C115.157 198.267 114.929 197.582 114.475 197.088C114.026 196.594 113.404 196.347 112.608 196.347C112.069 196.347 111.588 196.466 111.168 196.705C110.753 196.937 110.426 197.276 110.188 197.719C109.955 198.162 109.838 198.699 109.838 199.33ZM127.071 212.182C125.963 212.182 125.012 212.031 124.216 211.73C123.421 211.435 122.782 211.037 122.299 210.537C121.816 210.037 121.48 209.483 121.293 208.875L124.071 208.202C124.196 208.457 124.378 208.71 124.617 208.96C124.855 209.216 125.176 209.426 125.58 209.591C125.989 209.761 126.503 209.847 127.123 209.847C127.998 209.847 128.722 209.634 129.296 209.207C129.87 208.787 130.157 208.094 130.157 207.128V204.648H130.003C129.844 204.966 129.611 205.293 129.304 205.628C129.003 205.963 128.603 206.244 128.103 206.472C127.608 206.699 126.986 206.812 126.236 206.812C125.23 206.812 124.319 206.577 123.5 206.105C122.688 205.628 122.04 204.918 121.557 203.974C121.08 203.026 120.841 201.838 120.841 200.412C120.841 198.974 121.08 197.761 121.557 196.773C122.04 195.778 122.691 195.026 123.509 194.514C124.327 193.997 125.239 193.739 126.245 193.739C127.012 193.739 127.642 193.869 128.137 194.131C128.637 194.386 129.034 194.696 129.33 195.06C129.625 195.418 129.85 195.756 130.003 196.074H130.174V193.909H133.216V207.213C133.216 208.332 132.949 209.259 132.415 209.991C131.881 210.724 131.151 211.273 130.225 211.636C129.299 212 128.248 212.182 127.071 212.182ZM127.097 204.392C127.75 204.392 128.307 204.233 128.767 203.915C129.228 203.597 129.577 203.139 129.816 202.543C130.054 201.946 130.174 201.23 130.174 200.395C130.174 199.571 130.054 198.849 129.816 198.23C129.583 197.611 129.236 197.131 128.776 196.79C128.321 196.443 127.762 196.27 127.097 196.27C126.409 196.27 125.836 196.449 125.375 196.807C124.915 197.165 124.569 197.656 124.336 198.281C124.103 198.901 123.986 199.605 123.986 200.395C123.986 201.196 124.103 201.898 124.336 202.5C124.574 203.097 124.924 203.562 125.384 203.898C125.85 204.227 126.421 204.392 127.097 204.392ZM144.709 207H141.334L147.479 189.545H151.382L157.536 207H154.161L149.499 193.125H149.363L144.709 207ZM144.82 200.156H154.025V202.696H144.82V200.156ZM165.021 192.196V189.545H178.947V192.196H173.552V207H170.416V192.196H165.021ZM185.307 207.256C184.029 207.256 182.921 206.974 181.983 206.412C181.046 205.849 180.319 205.062 179.801 204.051C179.29 203.04 179.034 201.858 179.034 200.506C179.034 199.153 179.29 197.969 179.801 196.952C180.319 195.935 181.046 195.145 181.983 194.582C182.921 194.02 184.029 193.739 185.307 193.739C186.586 193.739 187.694 194.02 188.631 194.582C189.569 195.145 190.293 195.935 190.804 196.952C191.321 197.969 191.58 199.153 191.58 200.506C191.58 201.858 191.321 203.04 190.804 204.051C190.293 205.062 189.569 205.849 188.631 206.412C187.694 206.974 186.586 207.256 185.307 207.256ZM185.324 204.784C186.017 204.784 186.597 204.594 187.063 204.213C187.529 203.827 187.875 203.31 188.103 202.662C188.336 202.014 188.452 201.293 188.452 200.497C188.452 199.696 188.336 198.972 188.103 198.324C187.875 197.67 187.529 197.151 187.063 196.764C186.597 196.378 186.017 196.185 185.324 196.185C184.614 196.185 184.023 196.378 183.551 196.764C183.086 197.151 182.736 197.67 182.503 198.324C182.276 198.972 182.162 199.696 182.162 200.497C182.162 201.293 182.276 202.014 182.503 202.662C182.736 203.31 183.086 203.827 183.551 204.213C184.023 204.594 184.614 204.784 185.324 204.784ZM202.542 201.494V193.909H205.627V207H202.636V204.673H202.5C202.204 205.406 201.718 206.006 201.042 206.472C200.372 206.937 199.545 207.17 198.562 207.17C197.704 207.17 196.946 206.98 196.287 206.599C195.633 206.213 195.122 205.653 194.752 204.92C194.383 204.182 194.199 203.29 194.199 202.244V193.909H197.284V201.767C197.284 202.597 197.511 203.256 197.966 203.744C198.42 204.233 199.017 204.477 199.755 204.477C200.21 204.477 200.65 204.366 201.076 204.145C201.502 203.923 201.852 203.594 202.125 203.156C202.403 202.713 202.542 202.159 202.542 201.494ZM208.8 207V193.909H211.792V196.091H211.928C212.167 195.335 212.576 194.753 213.155 194.344C213.74 193.929 214.408 193.722 215.158 193.722C215.328 193.722 215.519 193.73 215.729 193.747C215.945 193.759 216.124 193.778 216.266 193.807V196.645C216.135 196.599 215.928 196.56 215.644 196.526C215.365 196.486 215.096 196.466 214.834 196.466C214.272 196.466 213.766 196.588 213.317 196.832C212.874 197.071 212.525 197.403 212.269 197.83C212.013 198.256 211.885 198.747 211.885 199.304V207H208.8Z" fill="#E39707"/>
<rect x="64.5" y="31.5" width="126" height="126" rx="63" stroke="#E39707" stroke-width="3"/>
<g clip-path="url(#clip0_55_533)">
<path fill-rule="evenodd" clip-rule="evenodd" d="M156.314 64.4231C156.528 64.5991 156.701 64.8206 156.82 65.0716C156.939 65.3225 157 65.5967 157 65.8743V118.374C157 118.808 156.849 119.227 156.575 119.562C156.3 119.897 155.917 120.127 155.493 120.212L136.743 123.962C136.5 124.01 136.25 124.01 136.007 123.962L117.625 120.287L99.2425 123.962C98.9706 124.016 98.69 124.01 98.421 123.942C98.1519 123.875 97.9011 123.749 97.6866 123.574C97.4721 123.398 97.2993 123.177 97.1806 122.926C97.0618 122.675 97.0002 122.402 97 122.124V69.6243C97.0003 69.191 97.1506 68.7712 97.4254 68.4362C97.7002 68.1012 98.0826 67.8718 98.5075 67.7868L117.257 64.0368C117.5 63.9883 117.75 63.9883 117.993 64.0368L136.375 67.7118L154.757 64.0368C155.029 63.9821 155.31 63.9884 155.579 64.0552C155.848 64.122 156.099 64.2476 156.314 64.4231ZM134.5 71.1618L119.5 68.1618V116.837L134.5 119.837V71.1618ZM138.25 119.837L153.25 116.837V68.1618L138.25 71.1618V119.837ZM115.75 116.837V68.1618L100.75 71.1618V119.837L115.75 116.837Z" fill="#E39707"/>
</g>
<defs>
<clipPath id="clip0_55_533">
<rect width="60" height="60" fill="white" transform="translate(97 64)"/>
</clipPath>
</defs>
</svg>
