<svg width="256" height="242" viewBox="0 0 256 242" fill="none" xmlns="http://www.w3.org/2000/svg">
<rect x="0.5" y="0.5" width="255" height="241" fill="#191E21"/>
<rect x="0.5" y="0.5" width="255" height="241" stroke="#E39707"/>
<path d="M88.8562 195.119C88.7141 194.659 88.5181 194.247 88.2681 193.884C88.0238 193.514 87.7283 193.199 87.3817 192.938C87.0408 192.676 86.6488 192.48 86.2056 192.349C85.7624 192.213 85.2795 192.145 84.7567 192.145C83.8192 192.145 82.984 192.381 82.2511 192.852C81.5181 193.324 80.9414 194.017 80.521 194.932C80.1062 195.841 79.8988 196.949 79.8988 198.256C79.8988 199.574 80.1062 200.69 80.521 201.605C80.9357 202.52 81.5124 203.216 82.2511 203.693C82.9897 204.165 83.8477 204.401 84.8249 204.401C85.7113 204.401 86.4783 204.23 87.1261 203.889C87.7795 203.548 88.2823 203.065 88.6346 202.44C88.9869 201.81 89.163 201.071 89.163 200.224L89.8789 200.335H85.1403V197.864H92.2227V199.96C92.2227 201.455 91.9045 202.747 91.2681 203.838C90.6317 204.929 89.7567 205.77 88.6431 206.361C87.5295 206.946 86.2511 207.239 84.8079 207.239C83.1999 207.239 81.788 206.878 80.5721 206.156C79.3619 205.429 78.4158 204.398 77.734 203.062C77.0579 201.722 76.7198 200.131 76.7198 198.29C76.7198 196.881 76.9187 195.622 77.3164 194.514C77.7198 193.406 78.2823 192.466 79.0039 191.693C79.7255 190.915 80.5721 190.324 81.5437 189.92C82.5153 189.511 83.5721 189.307 84.7141 189.307C85.68 189.307 86.5806 189.449 87.4158 189.733C88.2511 190.011 88.9925 190.409 89.6403 190.926C90.2937 191.443 90.8306 192.057 91.2511 192.767C91.6715 193.477 91.9471 194.261 92.0778 195.119H88.8562ZM100.854 207.256C99.5756 207.256 98.4677 206.974 97.5302 206.412C96.5927 205.849 95.8654 205.062 95.3484 204.051C94.837 203.04 94.5813 201.858 94.5813 200.506C94.5813 199.153 94.837 197.969 95.3484 196.952C95.8654 195.935 96.5927 195.145 97.5302 194.582C98.4677 194.02 99.5756 193.739 100.854 193.739C102.132 193.739 103.24 194.02 104.178 194.582C105.115 195.145 105.84 195.935 106.351 196.952C106.868 197.969 107.127 199.153 107.127 200.506C107.127 201.858 106.868 203.04 106.351 204.051C105.84 205.062 105.115 205.849 104.178 206.412C103.24 206.974 102.132 207.256 100.854 207.256ZM100.871 204.784C101.564 204.784 102.144 204.594 102.61 204.213C103.076 203.827 103.422 203.31 103.65 202.662C103.882 202.014 103.999 201.293 103.999 200.497C103.999 199.696 103.882 198.972 103.65 198.324C103.422 197.67 103.076 197.151 102.61 196.764C102.144 196.378 101.564 196.185 100.871 196.185C100.161 196.185 99.57 196.378 99.0984 196.764C98.6325 197.151 98.283 197.67 98.0501 198.324C97.8228 198.972 97.7092 199.696 97.7092 200.497C97.7092 201.293 97.8228 202.014 98.0501 202.662C98.283 203.31 98.6325 203.827 99.0984 204.213C99.57 204.594 100.161 204.784 100.871 204.784ZM113.512 207.264C112.683 207.264 111.936 207.116 111.271 206.821C110.612 206.52 110.089 206.077 109.703 205.491C109.322 204.906 109.132 204.185 109.132 203.327C109.132 202.588 109.268 201.977 109.541 201.494C109.814 201.011 110.186 200.625 110.657 200.335C111.129 200.045 111.66 199.827 112.251 199.679C112.848 199.526 113.464 199.415 114.1 199.347C114.868 199.267 115.49 199.196 115.967 199.134C116.444 199.065 116.791 198.963 117.007 198.827C117.228 198.685 117.339 198.466 117.339 198.17V198.119C117.339 197.477 117.149 196.98 116.768 196.628C116.387 196.276 115.839 196.099 115.123 196.099C114.368 196.099 113.768 196.264 113.325 196.594C112.887 196.923 112.592 197.312 112.439 197.761L109.558 197.352C109.785 196.557 110.16 195.892 110.683 195.358C111.206 194.818 111.845 194.415 112.6 194.148C113.356 193.875 114.191 193.739 115.106 193.739C115.737 193.739 116.365 193.812 116.99 193.96C117.615 194.108 118.186 194.352 118.703 194.693C119.22 195.028 119.635 195.486 119.947 196.065C120.265 196.645 120.424 197.369 120.424 198.239V207H117.458V205.202H117.356C117.169 205.565 116.904 205.906 116.564 206.224C116.228 206.537 115.805 206.79 115.294 206.983C114.788 207.17 114.194 207.264 113.512 207.264ZM114.314 204.997C114.933 204.997 115.47 204.875 115.924 204.631C116.379 204.381 116.728 204.051 116.973 203.642C117.223 203.233 117.348 202.787 117.348 202.304V200.761C117.251 200.841 117.086 200.915 116.853 200.983C116.626 201.051 116.37 201.111 116.086 201.162C115.802 201.213 115.521 201.259 115.243 201.298C114.964 201.338 114.723 201.372 114.518 201.401C114.058 201.463 113.646 201.565 113.282 201.707C112.919 201.849 112.632 202.048 112.422 202.304C112.211 202.554 112.106 202.878 112.106 203.276C112.106 203.844 112.314 204.273 112.728 204.562C113.143 204.852 113.672 204.997 114.314 204.997ZM128.849 192.196V189.545H142.775V192.196H137.38V207H134.244V192.196H128.849ZM149.135 207.256C147.857 207.256 146.749 206.974 145.811 206.412C144.874 205.849 144.147 205.062 143.63 204.051C143.118 203.04 142.863 201.858 142.863 200.506C142.863 199.153 143.118 197.969 143.63 196.952C144.147 195.935 144.874 195.145 145.811 194.582C146.749 194.02 147.857 193.739 149.135 193.739C150.414 193.739 151.522 194.02 152.459 194.582C153.397 195.145 154.121 195.935 154.632 196.952C155.15 197.969 155.408 199.153 155.408 200.506C155.408 201.858 155.15 203.04 154.632 204.051C154.121 205.062 153.397 205.849 152.459 206.412C151.522 206.974 150.414 207.256 149.135 207.256ZM149.152 204.784C149.846 204.784 150.425 204.594 150.891 204.213C151.357 203.827 151.703 203.31 151.931 202.662C152.164 202.014 152.28 201.293 152.28 200.497C152.28 199.696 152.164 198.972 151.931 198.324C151.703 197.67 151.357 197.151 150.891 196.764C150.425 196.378 149.846 196.185 149.152 196.185C148.442 196.185 147.851 196.378 147.38 196.764C146.914 197.151 146.564 197.67 146.331 198.324C146.104 198.972 145.99 199.696 145.99 200.497C145.99 201.293 146.104 202.014 146.331 202.662C146.564 203.31 146.914 203.827 147.38 204.213C147.851 204.594 148.442 204.784 149.152 204.784ZM166.37 201.494V193.909H169.456V207H166.464V204.673H166.328C166.032 205.406 165.547 206.006 164.87 206.472C164.2 206.937 163.373 207.17 162.39 207.17C161.532 207.17 160.774 206.98 160.115 206.599C159.461 206.213 158.95 205.653 158.581 204.92C158.211 204.182 158.027 203.29 158.027 202.244V193.909H161.112V201.767C161.112 202.597 161.339 203.256 161.794 203.744C162.248 204.233 162.845 204.477 163.583 204.477C164.038 204.477 164.478 204.366 164.904 204.145C165.331 203.923 165.68 203.594 165.953 203.156C166.231 202.713 166.37 202.159 166.37 201.494ZM172.628 207V193.909H175.62V196.091H175.756C175.995 195.335 176.404 194.753 176.983 194.344C177.569 193.929 178.236 193.722 178.986 193.722C179.157 193.722 179.347 193.73 179.557 193.747C179.773 193.759 179.952 193.778 180.094 193.807V196.645C179.963 196.599 179.756 196.56 179.472 196.526C179.194 196.486 178.924 196.466 178.662 196.466C178.1 196.466 177.594 196.588 177.145 196.832C176.702 197.071 176.353 197.403 176.097 197.83C175.841 198.256 175.713 198.747 175.713 199.304V207H172.628Z" fill="#E39707"/>
<rect x="64.5" y="31.5" width="126" height="126" rx="63" stroke="#E39707" stroke-width="3"/>
<g clip-path="url(#clip0_55_543)">
<path d="M140.019 96.9375C138.381 100.256 136.163 103.562 133.894 106.531C131.739 109.328 129.438 112.009 127 114.562C124.562 112.009 122.261 109.328 120.106 106.531C117.838 103.562 115.619 100.256 113.981 96.9375C112.325 93.5844 111.375 90.4438 111.375 87.75C111.375 83.606 113.021 79.6317 115.951 76.7015C118.882 73.7712 122.856 72.125 127 72.125C131.144 72.125 135.118 73.7712 138.049 76.7015C140.979 79.6317 142.625 83.606 142.625 87.75C142.625 90.4438 141.672 93.5844 140.019 96.9375ZM127 119C127 119 145.75 101.231 145.75 87.75C145.75 82.7772 143.775 78.0081 140.258 74.4917C136.742 70.9754 131.973 69 127 69C122.027 69 117.258 70.9754 113.742 74.4917C110.225 78.0081 108.25 82.7772 108.25 87.75C108.25 101.231 127 119 127 119Z" fill="#E39707"/>
<path d="M127 94C125.342 94 123.753 93.3415 122.581 92.1694C121.408 90.9973 120.75 89.4076 120.75 87.75C120.75 86.0924 121.408 84.5027 122.581 83.3306C123.753 82.1585 125.342 81.5 127 81.5C128.658 81.5 130.247 82.1585 131.419 83.3306C132.592 84.5027 133.25 86.0924 133.25 87.75C133.25 89.4076 132.592 90.9973 131.419 92.1694C130.247 93.3415 128.658 94 127 94ZM127 97.125C129.486 97.125 131.871 96.1373 133.629 94.3791C135.387 92.621 136.375 90.2364 136.375 87.75C136.375 85.2636 135.387 82.879 133.629 81.1209C131.871 79.3627 129.486 78.375 127 78.375C124.514 78.375 122.129 79.3627 120.371 81.1209C118.613 82.879 117.625 85.2636 117.625 87.75C117.625 90.2364 118.613 92.621 120.371 94.3791C122.129 96.1373 124.514 97.125 127 97.125Z" fill="#E39707"/>
</g>
<defs>
<clipPath id="clip0_55_543">
<rect width="50" height="50" fill="white" transform="translate(102 69)"/>
</clipPath>
</defs>
</svg>
