<svg width="256" height="242" viewBox="0 0 256 242" fill="none" xmlns="http://www.w3.org/2000/svg">
<rect x="0.5" y="0.5" width="255" height="241" fill="#191E21"/>
<rect x="0.5" y="0.5" width="255" height="241" stroke="#E39707"/>
<path d="M45.6918 207V204.716L51.7514 198.776C52.331 198.19 52.8139 197.67 53.2003 197.216C53.5866 196.761 53.8764 196.321 54.0696 195.895C54.2628 195.469 54.3594 195.014 54.3594 194.531C54.3594 193.98 54.2344 193.509 53.9844 193.116C53.7344 192.719 53.3906 192.412 52.9531 192.196C52.5156 191.98 52.0185 191.872 51.4616 191.872C50.8878 191.872 50.3849 191.991 49.9531 192.23C49.5213 192.463 49.1861 192.795 48.9474 193.227C48.7145 193.659 48.598 194.173 48.598 194.77H45.5895C45.5895 193.662 45.8423 192.699 46.348 191.881C46.8537 191.062 47.5497 190.429 48.4361 189.98C49.3281 189.531 50.3509 189.307 51.5043 189.307C52.6747 189.307 53.7031 189.526 54.5895 189.963C55.4759 190.401 56.1634 191 56.652 191.761C57.1463 192.523 57.3935 193.392 57.3935 194.369C57.3935 195.023 57.2685 195.665 57.0185 196.295C56.7685 196.926 56.3281 197.625 55.6974 198.392C55.0724 199.159 54.1946 200.088 53.0639 201.179L50.0554 204.239V204.358H57.6577V207H45.6918ZM59.9077 203.761V201.247L67.3139 189.545H69.4105V193.125H68.1321L63.1463 201.026V201.162H73.4844V203.761H59.9077ZM68.2344 207V202.994L68.2685 201.869V189.545H71.2514V207H68.2344ZM85.2798 199.33V207H82.1946V189.545H85.2116V196.134H85.3651C85.6719 195.395 86.1463 194.812 86.7884 194.386C87.4361 193.955 88.2599 193.739 89.2599 193.739C90.169 193.739 90.9616 193.929 91.6378 194.31C92.3139 194.69 92.8366 195.247 93.206 195.98C93.581 196.713 93.7685 197.608 93.7685 198.665V207H90.6832V199.142C90.6832 198.261 90.456 197.577 90.0014 197.088C89.5526 196.594 88.9219 196.347 88.1094 196.347C87.5639 196.347 87.0753 196.466 86.6435 196.705C86.2173 196.937 85.8821 197.276 85.6378 197.719C85.3991 198.162 85.2798 198.699 85.2798 199.33ZM96.9134 207V193.909H99.9048V196.091H100.041C100.28 195.335 100.689 194.753 101.268 194.344C101.854 193.929 102.521 193.722 103.271 193.722C103.442 193.722 103.632 193.73 103.842 193.747C104.058 193.759 104.237 193.778 104.379 193.807V196.645C104.249 196.599 104.041 196.56 103.757 196.526C103.479 196.486 103.209 196.466 102.947 196.466C102.385 196.466 101.879 196.588 101.43 196.832C100.987 197.071 100.638 197.403 100.382 197.83C100.126 198.256 99.9986 198.747 99.9986 199.304V207H96.9134ZM116.776 197.369L113.963 197.676C113.884 197.392 113.744 197.125 113.545 196.875C113.352 196.625 113.091 196.423 112.761 196.27C112.432 196.116 112.028 196.04 111.551 196.04C110.909 196.04 110.369 196.179 109.932 196.457C109.5 196.736 109.287 197.097 109.293 197.54C109.287 197.92 109.426 198.23 109.71 198.469C110 198.707 110.477 198.903 111.142 199.057L113.375 199.534C114.614 199.801 115.534 200.224 116.136 200.804C116.744 201.384 117.051 202.142 117.057 203.08C117.051 203.903 116.81 204.631 116.332 205.261C115.861 205.886 115.205 206.375 114.364 206.727C113.523 207.08 112.557 207.256 111.466 207.256C109.864 207.256 108.574 206.92 107.597 206.25C106.619 205.574 106.037 204.634 105.849 203.429L108.858 203.139C108.994 203.73 109.284 204.176 109.727 204.477C110.17 204.778 110.747 204.929 111.457 204.929C112.19 204.929 112.778 204.778 113.222 204.477C113.67 204.176 113.895 203.804 113.895 203.361C113.895 202.986 113.75 202.676 113.46 202.432C113.176 202.187 112.733 202 112.131 201.869L109.898 201.401C108.642 201.139 107.713 200.699 107.111 200.08C106.509 199.455 106.21 198.665 106.216 197.71C106.21 196.903 106.429 196.205 106.872 195.614C107.321 195.017 107.943 194.557 108.739 194.233C109.54 193.903 110.463 193.739 111.509 193.739C113.043 193.739 114.25 194.065 115.131 194.719C116.017 195.372 116.565 196.256 116.776 197.369ZM135.176 194.344C135.097 193.599 134.761 193.02 134.17 192.605C133.585 192.19 132.824 191.983 131.886 191.983C131.227 191.983 130.662 192.082 130.19 192.281C129.719 192.48 129.358 192.75 129.108 193.091C128.858 193.432 128.73 193.821 128.724 194.259C128.724 194.622 128.807 194.937 128.972 195.205C129.142 195.472 129.372 195.699 129.662 195.886C129.952 196.068 130.273 196.222 130.625 196.347C130.977 196.472 131.332 196.577 131.69 196.662L133.327 197.071C133.986 197.224 134.619 197.432 135.227 197.693C135.841 197.955 136.389 198.284 136.872 198.682C137.361 199.08 137.747 199.56 138.031 200.122C138.315 200.685 138.457 201.344 138.457 202.099C138.457 203.122 138.196 204.023 137.673 204.801C137.151 205.574 136.395 206.179 135.406 206.616C134.423 207.048 133.233 207.264 131.835 207.264C130.477 207.264 129.298 207.054 128.298 206.634C127.304 206.213 126.526 205.599 125.963 204.793C125.406 203.986 125.105 203.003 125.06 201.844H128.17C128.216 202.452 128.403 202.957 128.733 203.361C129.063 203.764 129.491 204.065 130.02 204.264C130.554 204.463 131.151 204.562 131.81 204.562C132.497 204.562 133.099 204.46 133.616 204.256C134.139 204.045 134.548 203.756 134.844 203.386C135.139 203.011 135.29 202.574 135.295 202.074C135.29 201.619 135.156 201.244 134.895 200.949C134.634 200.648 134.267 200.398 133.795 200.199C133.33 199.994 132.784 199.812 132.159 199.653L130.173 199.142C128.736 198.773 127.599 198.213 126.764 197.463C125.935 196.707 125.52 195.705 125.52 194.455C125.52 193.426 125.798 192.526 126.355 191.753C126.918 190.98 127.682 190.381 128.648 189.955C129.614 189.523 130.707 189.307 131.929 189.307C133.168 189.307 134.253 189.523 135.185 189.955C136.122 190.381 136.858 190.974 137.392 191.736C137.926 192.491 138.202 193.361 138.219 194.344H135.176ZM146.935 207.256C145.623 207.256 144.489 206.983 143.535 206.438C142.586 205.886 141.856 205.108 141.344 204.102C140.833 203.091 140.577 201.901 140.577 200.531C140.577 199.185 140.833 198.003 141.344 196.986C141.862 195.963 142.583 195.168 143.509 194.599C144.435 194.026 145.523 193.739 146.773 193.739C147.58 193.739 148.342 193.869 149.058 194.131C149.779 194.386 150.415 194.784 150.967 195.324C151.523 195.864 151.961 196.551 152.279 197.386C152.597 198.216 152.756 199.205 152.756 200.352V201.298H142.026V199.219H149.799C149.793 198.628 149.665 198.102 149.415 197.642C149.165 197.176 148.816 196.81 148.367 196.543C147.924 196.276 147.407 196.142 146.816 196.142C146.185 196.142 145.631 196.295 145.154 196.602C144.677 196.903 144.305 197.301 144.038 197.795C143.776 198.284 143.643 198.821 143.637 199.406V201.222C143.637 201.983 143.776 202.636 144.055 203.182C144.333 203.722 144.722 204.136 145.222 204.426C145.722 204.71 146.308 204.852 146.978 204.852C147.427 204.852 147.833 204.79 148.197 204.665C148.56 204.534 148.876 204.344 149.143 204.094C149.41 203.844 149.612 203.534 149.748 203.165L152.629 203.489C152.447 204.25 152.1 204.915 151.589 205.483C151.083 206.045 150.435 206.483 149.646 206.795C148.856 207.102 147.952 207.256 146.935 207.256ZM155.366 207V193.909H158.358V196.091H158.494C158.733 195.335 159.142 194.753 159.722 194.344C160.307 193.929 160.974 193.722 161.724 193.722C161.895 193.722 162.085 193.73 162.295 193.747C162.511 193.759 162.69 193.778 162.832 193.807V196.645C162.702 196.599 162.494 196.56 162.21 196.526C161.932 196.486 161.662 196.466 161.401 196.466C160.838 196.466 160.332 196.588 159.884 196.832C159.44 197.071 159.091 197.403 158.835 197.83C158.58 198.256 158.452 198.747 158.452 199.304V207H155.366ZM176.974 193.909L172.312 207H168.903L164.241 193.909H167.531L170.539 203.634H170.675L173.692 193.909H176.974ZM179.109 207V193.909H182.194V207H179.109ZM180.66 192.051C180.171 192.051 179.751 191.889 179.398 191.565C179.046 191.236 178.87 190.841 178.87 190.381C178.87 189.915 179.046 189.52 179.398 189.196C179.751 188.866 180.171 188.702 180.66 188.702C181.154 188.702 181.575 188.866 181.921 189.196C182.273 189.52 182.45 189.915 182.45 190.381C182.45 190.841 182.273 191.236 181.921 191.565C181.575 191.889 181.154 192.051 180.66 192.051ZM191.077 207.256C189.77 207.256 188.648 206.969 187.71 206.395C186.778 205.821 186.06 205.028 185.554 204.017C185.054 203 184.804 201.83 184.804 200.506C184.804 199.176 185.06 198.003 185.571 196.986C186.082 195.963 186.804 195.168 187.736 194.599C188.673 194.026 189.781 193.739 191.06 193.739C192.122 193.739 193.063 193.935 193.881 194.327C194.705 194.713 195.361 195.261 195.849 195.972C196.338 196.676 196.616 197.5 196.685 198.443H193.736C193.616 197.812 193.332 197.287 192.884 196.866C192.44 196.44 191.847 196.227 191.102 196.227C190.472 196.227 189.918 196.398 189.44 196.739C188.963 197.074 188.591 197.557 188.324 198.188C188.063 198.818 187.932 199.574 187.932 200.455C187.932 201.347 188.063 202.114 188.324 202.756C188.585 203.392 188.952 203.884 189.423 204.23C189.901 204.571 190.46 204.741 191.102 204.741C191.557 204.741 191.963 204.656 192.321 204.486C192.685 204.31 192.989 204.057 193.233 203.727C193.477 203.398 193.645 202.997 193.736 202.526H196.685C196.611 203.452 196.338 204.273 195.866 204.989C195.395 205.699 194.753 206.256 193.94 206.659C193.128 207.057 192.173 207.256 191.077 207.256ZM205.013 207.256C203.701 207.256 202.567 206.983 201.613 206.438C200.664 205.886 199.934 205.108 199.423 204.102C198.911 203.091 198.656 201.901 198.656 200.531C198.656 199.185 198.911 198.003 199.423 196.986C199.94 195.963 200.661 195.168 201.587 194.599C202.513 194.026 203.602 193.739 204.852 193.739C205.658 193.739 206.42 193.869 207.136 194.131C207.857 194.386 208.494 194.784 209.045 195.324C209.602 195.864 210.039 196.551 210.357 197.386C210.675 198.216 210.835 199.205 210.835 200.352V201.298H200.104V199.219H207.877C207.871 198.628 207.744 198.102 207.494 197.642C207.244 197.176 206.894 196.81 206.445 196.543C206.002 196.276 205.485 196.142 204.894 196.142C204.263 196.142 203.71 196.295 203.232 196.602C202.755 196.903 202.383 197.301 202.116 197.795C201.854 198.284 201.721 198.821 201.715 199.406V201.222C201.715 201.983 201.854 202.636 202.133 203.182C202.411 203.722 202.8 204.136 203.3 204.426C203.8 204.71 204.386 204.852 205.056 204.852C205.505 204.852 205.911 204.79 206.275 204.665C206.638 204.534 206.954 204.344 207.221 204.094C207.488 203.844 207.69 203.534 207.826 203.165L210.707 203.489C210.525 204.25 210.178 204.915 209.667 205.483C209.161 206.045 208.513 206.483 207.724 206.795C206.934 207.102 206.031 207.256 205.013 207.256Z" fill="#E39707"/>
<rect x="64.5" y="31.5" width="126" height="126" rx="63" stroke="#E39707" stroke-width="3"/>
<g clip-path="url(#clip0_55_549)">
<path d="M127 79.9375C127 79.5231 126.835 79.1257 126.542 78.8326C126.249 78.5396 125.852 78.375 125.438 78.375C125.023 78.375 124.626 78.5396 124.333 78.8326C124.04 79.1257 123.875 79.5231 123.875 79.9375V97.125C123.875 97.4004 123.948 97.6709 124.086 97.9091C124.225 98.1473 124.423 98.3446 124.662 98.4813L135.6 104.731C135.959 104.925 136.38 104.971 136.772 104.859C137.164 104.747 137.497 104.486 137.7 104.132C137.902 103.778 137.958 103.358 137.855 102.963C137.752 102.569 137.499 102.229 137.15 102.019L127 96.2188V79.9375Z" fill="#E39707"/>
<path d="M127 119C133.63 119 139.989 116.366 144.678 111.678C149.366 106.989 152 100.63 152 94C152 87.3696 149.366 81.0107 144.678 76.3223C139.989 71.6339 133.63 69 127 69C120.37 69 114.011 71.6339 109.322 76.3223C104.634 81.0107 102 87.3696 102 94C102 100.63 104.634 106.989 109.322 111.678C114.011 116.366 120.37 119 127 119ZM148.875 94C148.875 99.8016 146.57 105.366 142.468 109.468C138.366 113.57 132.802 115.875 127 115.875C121.198 115.875 115.634 113.57 111.532 109.468C107.43 105.366 105.125 99.8016 105.125 94C105.125 88.1984 107.43 82.6344 111.532 78.532C115.634 74.4297 121.198 72.125 127 72.125C132.802 72.125 138.366 74.4297 142.468 78.532C146.57 82.6344 148.875 88.1984 148.875 94Z" fill="#E39707"/>
</g>
<defs>
<clipPath id="clip0_55_549">
<rect width="50" height="50" fill="white" transform="translate(102 69)"/>
</clipPath>
</defs>
</svg>
